<?xml version="1.0" encoding="UTF-8"?> <!-- Creator: CorelDRAW 2019 (64-Bit) --> <svg xmlns="http://www.w3.org/2000/svg" xmlns:xlink="http://www.w3.org/1999/xlink" xml:space="preserve" width="5.9973mm" height="5.9972mm" style="shape-rendering:geometricPrecision; text-rendering:geometricPrecision; image-rendering:optimizeQuality; fill-rule:evenodd; clip-rule:evenodd" viewBox="0 0 24.1 24.1"> <defs> <style type="text/css"> <![CDATA[ .fil0 {fill:none;fill-rule:nonzero} .fil1 {fill:gray;fill-rule:nonzero} ]]> </style> </defs> <g id="Слой_x0020_1"> <metadata id="CorelCorpID_0Corel-Layer"></metadata> <g id="_684446752"> <path class="fil0" d="M12.05 0c-6.65,0 -12.05,5.39 -12.05,12.05 0,6.65 5.39,12.05 12.05,12.05 6.65,0 12.05,-5.39 12.05,-12.05 0,-6.65 -5.39,-12.05 -12.05,-12.05z"></path> <path class="fil1" d="M12.05 6.59c-1.86,0 -3.58,1.72 -3.58,3.58 0,2.05 1.72,3.77 3.58,3.77 2.07,0 3.78,-1.71 3.78,-3.77 0,-1.86 -1.71,-3.58 -3.78,-3.58zm0 12.81l0 0c0,0 -5.47,-6.14 -5.47,-9.23 0,-2.89 2.57,-5.46 5.47,-5.46 3.1,0 5.48,2.57 5.48,5.46 0,3.09 -5.48,9.23 -5.48,9.23z"></path> </g> </g> </svg> 