<svg xmlns="http://www.w3.org/2000/svg" xmlns:xlink="http://www.w3.org/1999/xlink"><symbol id="icon__hours-clock-24" viewBox="0 0 32 32"><title/><path d="M30.06,15.5a0.5,0.5,0,0,0-.5.5,13.52,13.52,0,1,1-1.49-6.14l-1.43-.38a0.5,0.5,0,1,0-.26,1l2.56,0.68,0.13,0a0.49,0.49,0,0,0,.25-0.07,0.5,0.5,0,0,0,.23-0.3l0.67-2.49a0.5,0.5,0,0,0-1-.26L28.91,9.29A14.49,14.49,0,1,0,30.56,16,0.5,0.5,0,0,0,30.06,15.5Z"/><path d="M14.31,14.74a4.5,4.5,0,0,0,.32-0.58,2.6,2.6,0,0,0,.17-0.51,2.19,2.19,0,0,0,0-.45,2.55,2.55,0,0,0-.19-1,2.34,2.34,0,0,0-.54-0.79,2.49,2.49,0,0,0-.83-0.52,3,3,0,0,0-1.08-.19,2.59,2.59,0,0,0-1,.19,2.56,2.56,0,0,0-.82.53,2.59,2.59,0,0,0-.57.81,2.56,2.56,0,0,0-.22,1h1.05a1.67,1.67,0,0,1,.14-0.64,1.41,1.41,0,0,1,.33-0.47,1.39,1.39,0,0,1,.48-0.28,1.79,1.79,0,0,1,1.2,0,1.5,1.5,0,0,1,.49.3,1.42,1.42,0,0,1,.32.45,1.32,1.32,0,0,1,.12.55,1.55,1.55,0,0,1-.1.54,2.77,2.77,0,0,1-.25.5,4.79,4.79,0,0,1-.32.46l-0.33.4L9.63,18.88v0.86h5.21v-1H11l2.77-3.3A6.33,6.33,0,0,0,14.31,14.74Z"/><polygon points="22.24 17.17 22.24 16.16 20.92 16.16 20.92 14.62 19.77 14.7 19.77 16.16 17.5 16.16 20.5 10.86 19.25 10.86 16.1 16.25 16.09 17.17 19.77 17.17 19.77 18.73 18.91 18.73 18.91 19.74 21.8 19.74 21.8 18.73 20.92 18.73 20.92 17.17 22.24 17.17"/></symbol><symbol id="icon__location" viewBox="0 0 29 32">
<g>
	<path fill="#222222" d="M1.045,27.731l13.303,4.245C14.397,31.992,14.449,32,14.5,32c0.053,0,0.106-0.009,0.157-0.025l13.312-4.407
		C28.595,27.36,29,26.803,29,26.145s-0.404-1.218-1.03-1.425l-7.733-2.56c-0.264-0.09-0.545,0.056-0.632,0.317
		c-0.087,0.263,0.055,0.545,0.317,0.632l7.733,2.56C27.975,25.775,28,26.06,28,26.145c0,0.084-0.025,0.368-0.344,0.474
		l-13.159,4.356L1.35,26.778C1.029,26.676,1.001,26.392,1,26.307c-0.001-0.084,0.021-0.368,0.339-0.478l8.028-2.753
		c0.261-0.089,0.4-0.374,0.311-0.635c-0.09-0.262-0.375-0.401-0.635-0.311l-8.028,2.753C0.392,25.097-0.007,25.659,0,26.317
		S0.417,27.53,1.045,27.731z"/>
	<path fill="#222222" d="M15.679,0.063C9.81-0.595,4.817,3.982,4.817,9.705c0,2.24,0.729,4.23,2.355,6.442l6.31,9.121
		c0.249,0.359,0.658,0.574,1.096,0.574h0c0.441,0,0.853-0.218,1.098-0.577l4.173-5.993l2.344-3.568
		c1.655-2.094,2.361-4.718,1.988-7.388C23.581,4.022,20.005,0.551,15.679,0.063z M21.382,15.12l-2.362,3.592l-4.168,5.986
		c-0.089,0.13-0.222,0.145-0.274,0.145s-0.185-0.014-0.274-0.143l-6.318-9.133c-1.5-2.041-2.169-3.85-2.169-5.862
		C5.817,4.905,9.734,1,14.548,1c0.335,0,0.675,0.019,1.018,0.058c3.88,0.437,7.086,3.548,7.624,7.397
		C23.525,10.852,22.892,13.206,21.382,15.12z"/>
	<path fill="#222222" d="M14.497,4.705c-2.757,0-5,2.243-5,5s2.243,5,5,5s5-2.243,5-5S17.253,4.705,14.497,4.705z M14.497,13.705
		c-2.206,0-4-1.794-4-4s1.794-4,4-4s4,1.794,4,4S16.702,13.705,14.497,13.705z"/>
</g>
</symbol></svg>