<?xml version="1.0" encoding="UTF-8"?> <!-- Creator: CorelDRAW 2019 (64-Bit) --> <svg xmlns="http://www.w3.org/2000/svg" xmlns:xlink="http://www.w3.org/1999/xlink" xml:space="preserve" width="5.9973mm" height="5.9972mm" style="shape-rendering:geometricPrecision; text-rendering:geometricPrecision; image-rendering:optimizeQuality; fill-rule:evenodd; clip-rule:evenodd" viewBox="0 0 28.55 28.55"> <defs> <style type="text/css"> <![CDATA[ .fil0 {fill:none;fill-rule:nonzero} .fil1 {fill:gray;fill-rule:nonzero} ]]> </style> </defs> <g id="Слой_x0020_1"> <metadata id="CorelCorpID_0Corel-Layer"></metadata> <g id="_684935504"> <path class="fil0" d="M14.28 28.55c7.89,0 14.28,-6.39 14.28,-14.28 0,-7.88 -6.39,-14.28 -14.28,-14.28 -7.88,0 -14.28,6.39 -14.28,14.28 0,7.88 6.39,14.28 14.28,14.28z"></path> <path class="fil1" d="M6.49 9.45l0 0c0,-0.08 0,-0.08 0,-0.16 0.09,-0.33 0.09,-0.65 0.16,-0.97 0,-0.24 0.16,-0.57 0.41,-0.73 0.24,-0.16 0.4,-0.41 0.73,-0.57 0.4,-0.25 0.89,-0.4 1.37,-0.49 0.16,0 0.24,0 0.41,0 0.24,0 0.49,0.24 0.57,0.49 0.65,0.97 1.3,1.87 1.87,2.84 0.24,0.41 0.24,0.73 -0.08,0.98 -0.16,0.24 -0.41,0.4 -0.57,0.56 -0.16,0.09 -0.4,0.24 -0.56,0.33 -0.41,0.4 -0.57,0.89 -0.41,1.37 0.16,0.57 0.41,0.97 0.73,1.46 0.89,1.46 2.19,2.6 3.74,3.41 0.24,0.09 0.4,0.16 0.64,0.24 0.49,0.08 0.82,0 1.14,-0.4 0.16,-0.16 0.32,-0.41 0.49,-0.65 0.08,-0.16 0.24,-0.32 0.32,-0.49 0.41,-0.41 0.82,-0.41 1.3,-0.16 0.81,0.57 1.7,1.14 2.51,1.7 0.08,0.08 0.16,0.16 0.32,0.16 0.24,0.16 0.41,0.32 0.49,0.65 0,0.4 0,0.4 0,0.4 -0.16,0.73 -0.49,1.38 -0.97,1.95 -0.16,0.24 -0.32,0.49 -0.64,0.49 -0.57,0.09 -1.06,0.16 -1.62,0.16 -1.87,0.08 -3.57,-0.49 -5.19,-1.38 -2.19,-1.22 -3.98,-2.84 -5.27,-4.95 -0.89,-1.38 -1.54,-2.84 -1.78,-4.46 0,-0.24 -0.09,-0.57 -0.09,-0.81 0,-0.32 0,-0.65 0,-0.98z"></path> </g> </g> </svg> 